<?xml version="1.0" standalone="no"?>
<!DOCTYPE svg PUBLIC "-//W3C//DTD SVG 20010904//EN"
 "http://www.w3.org/TR/2001/REC-SVG-20010904/DTD/svg10.dtd">
<svg version="1.0" xmlns="http://www.w3.org/2000/svg"
 width="1200.000000pt" height="1200.000000pt" viewBox="0 0 1200.000000 1200.000000"
 preserveAspectRatio="xMidYMid meet">
<metadata>
Created by potrace 1.11, written by Peter Selinger 2001-2013
</metadata>
<g transform="translate(0.000000,1200.000000) scale(0.100000,-0.100000)"
fill="#000000" stroke="none">
<path d="M0 6000 l0 -6000 6000 0 6000 0 0 6000 0 6000 -6000 0 -6000 0 0
-6000z m6170 4420 c234 -35 448 -146 626 -325 92 -93 218 -283 304 -460 38
-77 129 -295 203 -485 74 -190 624 -1553 1222 -3030 598 -1477 1123 -2775
1167 -2885 102 -255 171 -457 210 -615 27 -108 32 -143 32 -260 1 -152 -15
-219 -81 -339 -112 -207 -297 -361 -518 -431 -99 -32 -308 -39 -425 -16 -197
40 -350 148 -470 331 -111 170 -284 573 -565 1317 l-200 528 -1748 -3 -1749
-2 -213 -571 c-297 -797 -339 -902 -461 -1146 -117 -233 -190 -322 -321 -391
-101 -53 -169 -68 -333 -74 -124 -4 -157 -2 -231 15 -158 38 -284 109 -404
229 -217 217 -285 454 -219 766 19 92 84 288 164 492 74 190 2257 5734 2431
6175 167 422 268 620 405 791 144 181 382 328 609 376 160 33 392 39 565 13z"/>
<path d="M5276 6838 c-346 -964 -631 -1759 -633 -1765 -4 -10 255 -13 1277
-13 1021 0 1281 3 1278 13 -88 249 -1285 3517 -1288 3517 -3 0 -288 -789 -634
-1752z"/>
</g>
</svg>
